<svg width="480" height="233" viewBox="0 0 480 233" fill="none" xmlns="http://www.w3.org/2000/svg">
<path d="M431.311 7.5H48.6887C25.9408 7.5 7.5 25.9408 7.5 48.6887V184.311C7.5 207.059 25.9408 225.5 48.6887 225.5H431.311C454.059 225.5 472.5 207.059 472.5 184.311V48.6887C472.5 25.9408 454.059 7.5 431.311 7.5Z" stroke="black" stroke-width="15" stroke-linejoin="round"/>
<path d="M53 183H305" stroke="black" stroke-width="25" stroke-linecap="round"/>
<path d="M342 183L434 183" stroke="black" stroke-width="25" stroke-linecap="round"/>
<path d="M52.9998 143.014L185 145" stroke="black" stroke-width="25" stroke-linecap="round"/>
<path d="M240 144L434 145" stroke="black" stroke-width="25" stroke-linecap="round"/>
<path d="M67.24 45.245H82.54V85.025C82.54 88.3683 82.0017 91.3433 80.925 93.95C79.905 96.5 78.4883 98.6533 76.675 100.41C74.8617 102.167 72.7083 103.498 70.215 104.405C67.7217 105.312 65.03 105.765 62.14 105.765C59.1367 105.765 56.3883 105.312 53.895 104.405C51.4017 103.498 49.22 102.28 47.35 100.75C45.48 99.1633 43.95 97.3217 42.76 95.225C41.57 93.1283 40.7483 90.9183 40.295 88.595L53.81 83.92C54.7733 90.1533 57.4933 93.27 61.97 93.27C65.4833 93.27 67.24 90.0967 67.24 83.75V45.245ZM89.6946 82.73C89.6946 79.3867 90.2329 76.3267 91.3096 73.55C92.4429 70.7167 94.0013 68.28 95.9846 66.24C97.9679 64.2 100.348 62.6133 103.125 61.48C105.901 60.3467 108.961 59.78 112.305 59.78C115.591 59.78 118.595 60.3467 121.315 61.48C124.091 62.6133 126.471 64.2 128.455 66.24C130.495 68.28 132.053 70.7167 133.13 73.55C134.263 76.3267 134.83 79.3867 134.83 82.73V85.62H104.145C104.541 88.51 105.448 90.7483 106.865 92.335C108.281 93.865 110.095 94.63 112.305 94.63C114.061 94.63 115.705 94.1483 117.235 93.185C118.821 92.165 120.011 90.8333 120.805 89.19L133.895 92.76C133.328 94.63 132.393 96.3583 131.09 97.945C129.786 99.5317 128.2 100.892 126.33 102.025C124.46 103.158 122.335 104.065 119.955 104.745C117.575 105.368 115.025 105.68 112.305 105.68C108.961 105.68 105.901 105.113 103.125 103.98C100.348 102.847 97.9679 101.288 95.9846 99.305C94.0013 97.265 92.4429 94.8567 91.3096 92.08C90.2329 89.2467 89.6946 86.13 89.6946 82.73ZM112.305 70.83C110.378 70.83 108.735 71.4533 107.375 72.7C106.071 73.9467 105.136 75.6467 104.57 77.8H119.7C119.473 75.7033 118.68 74.0317 117.32 72.785C116.016 71.4817 114.345 70.83 112.305 70.83ZM159.13 59.78C161.737 59.78 164.145 60.1483 166.355 60.885C168.622 61.565 170.605 62.5283 172.305 63.775C174.005 64.965 175.394 66.3533 176.47 67.94C177.547 69.5267 178.255 71.1983 178.595 72.955L164.825 74.74C164.485 73.4367 163.805 72.3883 162.785 71.595C161.822 70.8017 160.604 70.405 159.13 70.405C158.054 70.405 157.119 70.6317 156.325 71.085C155.589 71.4817 155.22 72.0767 155.22 72.87C155.22 73.72 155.645 74.4 156.495 74.91C157.345 75.3633 158.507 75.7883 159.98 76.185C162.984 76.9783 165.675 77.8 168.055 78.65C170.435 79.4433 172.447 80.4067 174.09 81.54C175.79 82.6733 177.094 84.0333 178 85.62C178.907 87.15 179.36 89.0767 179.36 91.4C179.36 93.3833 178.935 95.2533 178.085 97.01C177.235 98.71 175.989 100.212 174.345 101.515C172.759 102.818 170.804 103.838 168.48 104.575C166.214 105.312 163.635 105.68 160.745 105.68C157.855 105.68 155.164 105.283 152.67 104.49C150.234 103.697 148.08 102.648 146.21 101.345C144.397 99.985 142.895 98.4267 141.705 96.67C140.572 94.8567 139.835 92.9867 139.495 91.06L153.605 89.785C153.832 91.4283 154.569 92.76 155.815 93.78C157.119 94.7433 158.762 95.225 160.745 95.225C162.275 95.225 163.38 94.9417 164.06 94.375C164.797 93.8083 165.165 93.0717 165.165 92.165C165.165 90.5217 163.72 89.275 160.83 88.425C158.054 87.745 155.447 87.0367 153.01 86.3C150.63 85.5633 148.562 84.6567 146.805 83.58C145.049 82.4467 143.66 81.0867 142.64 79.5C141.62 77.9133 141.11 75.93 141.11 73.55C141.11 71.4533 141.564 69.555 142.47 67.855C143.434 66.155 144.709 64.71 146.295 63.52C147.939 62.33 149.837 61.4233 151.99 60.8C154.2 60.12 156.58 59.78 159.13 59.78ZM188.346 70.575H182.311V61.735L188.346 60.545L192.426 48.73H202.711V60.545H211.296V71H202.711V89.955C202.711 91.5983 203.108 92.8733 203.901 93.78C204.751 94.63 205.998 95.055 207.641 95.055C208.265 95.055 208.916 94.9983 209.596 94.885C210.333 94.7717 211.438 94.5733 212.911 94.29V105.085C212.005 105.312 210.815 105.482 209.341 105.595C207.925 105.765 206.65 105.85 205.516 105.85C202.683 105.85 200.19 105.453 198.036 104.66C195.94 103.81 194.155 102.677 192.681 101.26C191.265 99.7867 190.188 98.0867 189.451 96.16C188.715 94.2333 188.346 92.1933 188.346 90.04V70.575ZM217.527 82.73C217.527 79.3867 218.065 76.3267 219.142 73.55C220.275 70.7167 221.833 68.28 223.817 66.24C225.8 64.2 228.18 62.6133 230.957 61.48C233.733 60.3467 236.793 59.78 240.137 59.78C243.423 59.78 246.427 60.3467 249.147 61.48C251.923 62.6133 254.303 64.2 256.287 66.24C258.327 68.28 259.885 70.7167 260.962 73.55C262.095 76.3267 262.662 79.3867 262.662 82.73V85.62H231.977C232.373 88.51 233.28 90.7483 234.697 92.335C236.113 93.865 237.927 94.63 240.137 94.63C241.893 94.63 243.537 94.1483 245.067 93.185C246.653 92.165 247.843 90.8333 248.637 89.19L261.727 92.76C261.16 94.63 260.225 96.3583 258.922 97.945C257.618 99.5317 256.032 100.892 254.162 102.025C252.292 103.158 250.167 104.065 247.787 104.745C245.407 105.368 242.857 105.68 240.137 105.68C236.793 105.68 233.733 105.113 230.957 103.98C228.18 102.847 225.8 101.288 223.817 99.305C221.833 97.265 220.275 94.8567 219.142 92.08C218.065 89.2467 217.527 86.13 217.527 82.73ZM240.137 70.83C238.21 70.83 236.567 71.4533 235.207 72.7C233.903 73.9467 232.968 75.6467 232.402 77.8H247.532C247.305 75.7033 246.512 74.0317 245.152 72.785C243.848 71.4817 242.177 70.83 240.137 70.83ZM281.607 60.545C281.891 61.5083 282.089 62.5 282.202 63.52C282.372 64.4833 282.514 65.4183 282.627 66.325C284.101 64.3983 285.857 62.84 287.897 61.65C289.937 60.46 292.034 59.865 294.187 59.865L295.632 71.765C293.819 71.6517 292.147 71.7933 290.617 72.19C289.087 72.5867 287.756 73.2667 286.622 74.23C285.546 75.1933 284.696 76.4683 284.072 78.055C283.506 79.585 283.222 81.4833 283.222 83.75V105H269.027V74.4C269.027 72.53 268.999 70.9433 268.942 69.64C268.942 68.3367 268.914 67.175 268.857 66.155C268.801 65.135 268.687 64.2 268.517 63.35C268.404 62.4433 268.262 61.5083 268.092 60.545H281.607Z" fill="black"/>
</svg>
